<svg width="216" height="215" viewBox="0 0 216 215" fill="none" xmlns="http://www.w3.org/2000/svg">
<rect x="0.886719" width="215" height="215" fill="#12160F"/>
<path d="M109.051 60.5021C108.463 61.2682 106.201 64.1852 102.264 69.2531C98.3269 74.321 94.1842 79.389 89.8359 84.4569L88.8663 92.5008C88.3962 97.0384 87.9261 100.25 87.456 102.136C87.0447 103.963 86.3689 104.876 85.4287 104.876C84.0772 104.876 82.4613 104.405 80.5809 103.462C78.7593 102.46 77.1433 101.281 75.733 99.9259C74.3815 98.5705 73.7058 97.4509 73.7058 96.5669C73.647 95.5062 73.8233 94.0035 74.2346 92.0588C74.7047 90.0552 75.498 86.7552 76.6145 82.1587L77.2315 79.772C76.8201 78.8292 75.2629 75.588 72.5599 70.0487C70.327 65.6289 68.6522 62.1226 67.5358 59.5297C66.4193 56.8779 65.8611 54.8448 65.8611 53.4305C65.8611 52.4287 66.5074 51.2501 67.8002 49.8948C69.1517 48.5394 70.7383 47.3903 72.5599 46.4474C74.4403 45.4456 76.115 44.9447 77.584 44.9447C78.7005 44.9447 79.5819 45.9465 80.2283 47.9501C80.8747 49.8948 81.6974 53.3127 82.6963 58.2038C83.6365 63.3307 84.5767 67.6325 85.5169 71.1094C91.0992 61.5628 95.8002 52.5171 99.6197 43.9723C101.559 43.442 103.292 43.1768 104.82 43.1768C107.876 43.1768 110.226 44.0902 111.872 45.917C113.576 47.7438 114.486 50.2189 114.604 53.3421L109.051 60.5021Z" fill="white"/>
<path d="M149.127 82.8658C149.186 83.8087 149.391 86.1953 149.744 90.0258C150.155 93.7973 150.361 96.95 150.361 99.484C150.361 102.784 149.979 104.552 149.215 104.788C148.98 104.847 148.598 104.876 148.069 104.876C146.776 104.876 145.161 104.581 143.221 103.992C141.341 103.344 139.637 102.548 138.109 101.605C136.64 100.663 135.788 99.7491 135.553 98.8652C135.318 97.9813 135.2 94.2687 135.2 87.7275C128.854 88.4936 124.682 88.965 122.684 89.1418C121.098 93.7973 119.276 98.8947 117.219 104.434C115.633 104.788 114.164 104.964 112.812 104.964C110.462 104.964 108.464 104.405 106.818 103.285C105.232 102.106 104.174 100.338 103.645 97.9813L105.408 94.0035C111.872 79.5658 117.454 67.4558 122.155 57.6735C126.915 47.8912 130 43 131.41 43C132.527 43 134.143 43.4125 136.258 44.2375C138.432 45.0625 140.371 46.0643 142.076 47.2429C143.838 48.4215 144.837 49.4822 145.072 50.4251C145.484 52.0751 146.042 55.5225 146.747 60.7673C147.452 66.012 148.01 71.0799 148.422 75.9711L149.127 82.8658ZM134.936 56.7895C132.35 62.9182 129.794 69.4888 127.268 76.5014C129.971 76.3246 132.644 76.0595 135.289 75.7059C135.289 67.5736 135.171 61.2682 134.936 56.7895Z" fill="white"/>
<path d="M70.6128 108.798C77.723 109.387 84.3043 111.155 90.3568 114.102C96.4093 117.048 101.198 120.761 104.724 125.239C108.25 129.659 110.013 134.315 110.013 139.206C110.013 143.508 108.132 148.251 104.371 153.437C100.611 158.623 96.0273 163.013 90.6212 166.608C85.2739 170.203 80.3967 172 75.9895 172C74.5205 172 72.6401 171.263 70.3484 169.79C68.1155 168.317 66.1469 166.637 64.4429 164.752C62.7388 162.807 61.8867 161.275 61.8867 160.155C61.8867 159.153 62.4743 156.354 63.6496 151.758C64.8248 146.984 65.7944 142.683 66.5583 138.852C66.8521 137.379 67.4985 134.786 68.4974 131.073C68.6149 130.543 68.9088 129.482 69.3788 127.891C69.8489 126.241 70.2015 124.739 70.4366 123.383L66.8227 123.206C65.8825 121.321 65.4124 119.435 65.4124 117.549C65.4124 115.781 65.8531 114.161 66.7346 112.687C67.616 111.155 68.9087 109.859 70.6128 108.798ZM75.9895 160.42C81.8657 157.356 86.7429 153.614 90.6212 149.194C94.5583 144.775 96.5268 140.62 96.5268 136.731C96.5268 134.432 95.1459 132.223 92.3841 130.101C89.681 127.98 86.5667 126.565 83.041 125.858C82.3358 129.453 81.2781 134.609 79.8678 141.327C78.105 149.695 76.8122 156.06 75.9895 160.42Z" fill="white"/>
<path d="M149.452 111.273C150.451 111.686 151.45 112.628 152.449 114.102C153.448 115.575 154.271 117.196 154.917 118.963C155.564 120.672 155.887 122.057 155.887 123.118C155.887 123.53 155.857 123.825 155.799 124.002C154.917 126.418 151.127 131.427 144.428 139.029C137.788 146.631 131.266 153.496 124.861 159.625C131.971 158.269 139.727 156.973 148.13 155.735C149.482 156.325 150.539 157.385 151.303 158.918C152.067 160.391 152.449 162.011 152.449 163.779C152.449 166.608 151.597 168.906 149.893 170.674C139.316 171.204 131.236 171.47 125.654 171.47C119.131 171.47 115.488 171.175 114.724 170.586C113.431 169.466 112.168 167.61 110.934 165.017C109.7 162.365 109.083 160.214 109.083 158.564C109.083 158.21 109.142 157.857 109.259 157.503C109.553 156.56 111.198 154.527 114.195 151.404C117.192 148.222 121.599 143.714 127.417 137.88C134.821 130.455 139.639 125.505 141.872 123.03L131.736 123.913L119.484 125.063C118.25 124.414 117.28 123.383 116.575 121.969C115.87 120.555 115.517 119.052 115.517 117.461C115.517 116.164 115.782 114.897 116.311 113.66C116.898 112.422 117.721 111.362 118.779 110.478C120.777 110.419 124.39 110.389 129.62 110.389C141.608 110.389 148.218 110.684 149.452 111.273Z" fill="white"/>
</svg>
