<svg width="216" height="216" viewBox="0 0 216 216" fill="none" xmlns="http://www.w3.org/2000/svg">
<path d="M0.96875 102.858C0.96875 67.0146 0.96875 49.093 7.94433 35.4026C14.0802 23.3602 23.871 13.5695 35.9134 7.43359C49.6037 0.458008 67.5254 0.458008 103.369 0.458008H113.569C149.412 0.458008 167.334 0.458008 181.024 7.43359C193.067 13.5695 202.857 23.3602 208.993 35.4026C215.969 49.093 215.969 67.0146 215.969 102.858V113.058C215.969 148.901 215.969 166.823 208.993 180.513C202.857 192.556 193.067 202.347 181.024 208.482C167.334 215.458 149.412 215.458 113.569 215.458H103.369C67.5254 215.458 49.6037 215.458 35.9134 208.482C23.871 202.347 14.0802 192.556 7.94433 180.513C0.96875 166.823 0.96875 148.901 0.96875 113.058V102.858Z" fill="#12160F"/>
<path d="M109.159 53.6054C108.479 54.4914 105.863 57.8649 101.31 63.726C96.7564 69.587 91.9653 75.4481 86.9364 81.3092L85.8151 90.6119C85.2715 95.8596 84.7278 99.5739 84.1841 101.755C83.7084 103.867 82.9269 104.924 81.8396 104.924C80.2766 104.924 78.4077 104.379 76.2331 103.288C74.1264 102.13 72.2575 100.767 70.6265 99.199C69.0635 97.6316 68.282 96.3367 68.282 95.3144C68.214 94.0877 68.4179 92.3498 68.8936 90.1008C69.4373 87.7836 70.3547 83.9671 71.6459 78.6512L72.3595 75.8911C71.8838 74.8006 70.0829 71.0523 66.9568 64.646C64.3744 59.5346 62.4376 55.4796 61.1464 52.4809C59.8552 49.414 59.2096 47.0628 59.2096 45.4272C59.2096 44.2686 59.9571 42.9055 61.4522 41.338C63.0152 39.7705 64.8501 38.4416 66.9568 37.3512C69.1315 36.1926 71.0683 35.6133 72.7672 35.6133C74.0584 35.6133 75.0778 36.7719 75.8253 39.089C76.5729 41.338 77.5243 45.2909 78.6796 50.9475C79.7669 56.8767 80.8542 61.8518 81.9415 65.8727C88.3975 54.8321 93.8342 44.3708 98.2514 34.4888C100.494 33.8754 102.499 33.5687 104.266 33.5687C107.8 33.5687 110.518 34.6251 112.421 36.7378C114.391 38.8505 115.445 41.7129 115.581 45.3249L109.159 53.6054Z" fill="white"/>
<path d="M155.507 79.4691C155.574 80.5595 155.812 83.3196 156.22 87.7495C156.696 92.1112 156.934 95.7574 156.934 98.6879C156.934 102.504 156.492 104.549 155.608 104.822C155.337 104.89 154.895 104.924 154.283 104.924C152.788 104.924 150.919 104.583 148.677 103.902C146.502 103.152 144.531 102.232 142.764 101.141C141.065 100.051 140.08 98.9946 139.808 97.9723C139.536 96.95 139.401 92.6565 139.401 85.0916C132.061 85.9776 127.236 86.5228 124.925 86.7272C123.091 92.1112 120.984 98.0064 118.605 104.413C116.771 104.822 115.072 105.026 113.509 105.026C110.79 105.026 108.48 104.379 106.577 103.084C104.742 101.721 103.519 99.6761 102.907 96.95L104.946 92.3498C112.421 75.6525 118.877 61.6473 124.314 50.3341C129.818 39.0209 133.386 33.3643 135.017 33.3643C136.308 33.3643 138.177 33.8413 140.624 34.7954C143.138 35.7496 145.381 36.9082 147.352 38.2712C149.39 39.6342 150.546 40.861 150.817 41.9514C151.293 43.8597 151.939 47.8466 152.754 53.9121C153.57 59.9776 154.215 65.8387 154.691 71.4953L155.507 79.4691ZM139.095 49.3118C136.105 56.3996 133.148 63.9986 130.226 72.1086C133.352 71.9042 136.444 71.5975 139.502 71.1886C139.502 61.7836 139.367 54.4914 139.095 49.3118Z" fill="white"/>
<path d="M64.705 109.46C72.9279 110.141 80.5392 112.186 87.5389 115.593C94.5386 119.001 100.077 123.295 104.155 128.474C108.232 133.585 110.271 138.969 110.271 144.626C110.271 149.601 108.096 155.087 103.747 161.085C99.3976 167.082 94.0968 172.159 87.8447 176.317C81.6605 180.474 76.02 182.553 70.9232 182.553C69.2242 182.553 67.0496 181.701 64.3992 179.997C61.8168 178.293 59.5402 176.351 57.5695 174.17C55.5987 171.921 54.6133 170.149 54.6133 168.854C54.6133 167.696 55.2929 164.458 56.652 159.142C58.0112 153.622 59.1325 148.647 60.0159 144.217C60.3557 142.513 61.1033 139.515 62.2586 135.221C62.3945 134.608 62.7343 133.381 63.2779 131.541C63.8216 129.633 64.2293 127.895 64.5012 126.327L60.3217 126.123C59.2344 123.942 58.6908 121.761 58.6908 119.58C58.6908 117.536 59.2004 115.662 60.2198 113.958C61.2392 112.186 62.7343 110.686 64.705 109.46ZM70.9232 169.161C77.719 165.617 83.3595 161.289 87.8447 156.178C92.3979 151.066 94.6745 146.262 94.6745 141.764C94.6745 139.106 93.0775 136.55 89.8835 134.097C86.7574 131.643 83.1556 130.007 79.0781 129.19C78.2626 133.347 77.0394 139.31 75.4084 147.08C73.3697 156.757 71.8746 164.118 70.9232 169.161Z" fill="white"/>
<path d="M155.883 112.322C157.038 112.799 158.193 113.89 159.349 115.593C160.504 117.297 161.455 119.171 162.203 121.216C162.95 123.192 163.324 124.794 163.324 126.021C163.324 126.498 163.29 126.838 163.222 127.043C162.203 129.837 157.82 135.63 150.072 144.422C142.393 153.213 134.85 161.153 127.442 168.241C135.665 166.673 144.636 165.174 154.354 163.743C155.917 164.424 157.14 165.651 158.024 167.423C158.907 169.127 159.349 171.001 159.349 173.045C159.349 176.317 158.363 178.975 156.393 181.019C144.16 181.633 134.816 181.939 128.36 181.939C120.817 181.939 116.603 181.599 115.72 180.917C114.225 179.622 112.764 177.475 111.336 174.477C109.909 171.41 109.196 168.922 109.196 167.014C109.196 166.605 109.264 166.196 109.4 165.787C109.739 164.697 111.642 162.346 115.108 158.734C118.574 155.053 123.671 149.84 130.399 143.093C138.961 134.506 144.534 128.781 147.116 125.918L135.394 126.941L121.224 128.27C119.797 127.52 118.676 126.327 117.86 124.692C117.045 123.056 116.637 121.318 116.637 119.478C116.637 117.979 116.943 116.513 117.555 115.082C118.234 113.651 119.186 112.424 120.409 111.402C122.719 111.334 126.899 111.3 132.947 111.3C146.81 111.3 154.456 111.641 155.883 112.322Z" fill="white"/>
</svg>
