<svg xmlns="http://www.w3.org/2000/svg" viewBox="0 0 75 32" fill="none"><path fill="currentColor" d="M15.07 19.01c-1.324 1.505-2.99 2.779-4.997 3.822.28-1.485.722-3.652 1.324-6.501.482-2.288.843-4.044 1.084-5.268a7.479 7.479 0 0 1 3.191 1.445c.944.722 1.415 1.475 1.415 2.258 0 1.324-.672 2.739-2.017 4.244Z"/><path fill="currentColor" d="M31.612 10.253a135.066 135.066 0 0 0-2.62 6.712c.924-.06 1.837-.15 2.74-.27 0-2.77-.04-4.917-.12-6.442Z"/><path fill="currentColor" fill-rule="evenodd" d="M.943 4.723C0 6.573 0 8.995 0 13.839v4.322c0 4.844 0 7.266.943 9.116a8.65 8.65 0 0 0 3.78 3.78C6.575 32 8.998 32 13.843 32h47.316c4.845 0 7.268 0 9.118-.943a8.65 8.65 0 0 0 3.781-3.78c.943-1.85.943-4.272.943-9.116v-4.322c0-4.844 0-7.266-.943-9.116a8.65 8.65 0 0 0-3.78-3.78C68.425 0 66.002 0 61.157 0H13.842C8.997 0 6.574 0 4.724.943a8.65 8.65 0 0 0-3.781 3.78ZM14.98 7.06c-2.067-1.004-4.315-1.606-6.744-1.806-.582.36-1.024.802-1.325 1.324a3.157 3.157 0 0 0-.451 1.656c0 .642.16 1.284.482 1.926l1.234.06c-.08.462-.2.973-.361 1.535-.16.542-.261.903-.301 1.084-.342 1.264-.562 2.147-.663 2.649-.26 1.304-.592 2.77-.993 4.395-.402 1.565-.602 2.518-.602 2.86 0 .38.29.902.873 1.564a10.476 10.476 0 0 0 2.017 1.716c.783.502 1.425.753 1.927.753 1.505 0 3.17-.612 4.997-1.837a18.17 18.17 0 0 0 4.697-4.485c1.285-1.765 1.927-3.38 1.927-4.846 0-1.665-.602-3.25-1.807-4.756-1.204-1.525-2.84-2.789-4.907-3.792Zm53.78.011c-.34-.501-.682-.822-1.023-.963-.421-.2-2.68-.3-6.774-.3-1.786 0-3.02.01-3.703.03a3.17 3.17 0 0 0-.843 1.083c-.18.421-.27.853-.27 1.294 0 .542.12 1.054.36 1.535.241.482.572.833.994 1.054l4.185-.391 3.462-.301c-.763.842-2.409 2.528-4.937 5.056-1.988 1.987-3.493 3.522-4.517 4.606-1.023 1.063-1.585 1.756-1.686 2.077-.04.12-.06.24-.06.361 0 .562.211 1.294.633 2.197.421.883.853 1.515 1.294 1.897.261.2 1.505.3 3.733.3 1.907 0 4.667-.09 8.28-.27.582-.602.873-1.385.873-2.348 0-.602-.13-1.154-.392-1.655-.26-.522-.622-.883-1.083-1.084-2.87.421-5.52.863-7.949 1.324 2.188-2.087 4.416-4.425 6.684-7.013 2.288-2.589 3.583-4.295 3.884-5.117.02-.06.03-.16.03-.301 0-.361-.11-.833-.331-1.415a7.556 7.556 0 0 0-.843-1.656ZM36.46 19.132c.02.321.09 1.134.21 2.438.141 1.285.211 2.358.211 3.221 0 1.124-.13 1.726-.391 1.806-.08.02-.21.03-.391.03-.442 0-.994-.1-1.656-.3a8.737 8.737 0 0 1-1.746-.813c-.502-.321-.793-.632-.873-.933-.08-.301-.12-1.566-.12-3.793-2.169.26-3.594.421-4.276.482a205.17 205.17 0 0 1-1.867 5.207c-.542.12-1.043.18-1.505.18-.803 0-1.485-.19-2.047-.571-.542-.402-.903-1.004-1.084-1.806l.602-1.355c2.208-4.916 4.115-9.04 5.72-12.371 1.626-3.331 2.68-4.997 3.162-4.997.38 0 .933.14 1.655.421.743.281 1.405.622 1.987 1.024.603.401.944.762 1.024 1.083.14.562.331 1.736.572 3.522.24 1.786.432 3.512.572 5.178l.24 2.347Zm14.388-4.637c1.345-1.726 2.118-2.72 2.319-2.98l1.896-2.438c-.04-1.064-.35-1.907-.933-2.529-.562-.622-1.365-.933-2.408-.933-.522 0-1.114.09-1.777.27-1.304 2.91-2.91 5.99-4.817 9.242-.321-1.184-.642-2.65-.963-4.395-.341-1.665-.622-2.83-.843-3.492-.221-.682-.522-1.023-.903-1.023-.502 0-1.074.17-1.716.512a6.486 6.486 0 0 0-1.626 1.174c-.442.461-.663.863-.663 1.204 0 .481.191 1.174.572 2.077.382.883.954 2.077 1.717 3.582.923 1.886 1.455 2.99 1.595 3.31l-.21.813a507.426 507.426 0 0 0-.814 3.372c-.14.662-.2 1.174-.18 1.535 0 .3.23.682.692 1.144a7.79 7.79 0 0 0 1.656 1.204c.642.32 1.194.481 1.656.481.321 0 .552-.31.692-.933.161-.642.322-1.736.482-3.28l.331-2.74a137.51 137.51 0 0 0 4.245-5.177Z" clip-rule="evenodd"/></svg>