<svg width="215" height="215" viewBox="0 0 215 215" fill="none" xmlns="http://www.w3.org/2000/svg"><path d="M84.653 76.86C79.76 82.42 73.605 87.13 66.19 90.985c1.038-5.487 2.67-13.495 4.894-24.025 1.78-8.453 3.114-14.941 4.004-19.464 4.449.89 8.379 2.67 11.79 5.339 3.485 2.67 5.228 5.45 5.228 8.342 0 4.894-2.484 10.121-7.453 15.683ZM134.944 69.296c3.189-8.824 6.414-17.092 9.677-24.803.297 5.635.445 13.57.445 23.802-3.337.445-6.711.779-10.122 1.001Z" fill="#fff"/><path fill-rule="evenodd" clip-rule="evenodd" d="M6.976 34.945C0 48.635 0 66.557 0 102.4v10.2c0 35.843 0 53.765 6.976 67.455a63.992 63.992 0 0 0 27.969 27.969C48.635 215 66.557 215 102.4 215h10.2c35.843 0 53.765 0 67.455-6.976a63.984 63.984 0 0 0 27.969-27.969C215 166.365 215 148.443 215 112.6v-10.2c0-35.843 0-53.765-6.976-67.455a63.992 63.992 0 0 0-27.969-27.97C166.365 0 148.443 0 112.6 0h-10.2C66.557 0 48.635 0 34.945 6.976a64 64 0 0 0-27.97 27.969Zm77.344-2.242c-7.638-3.708-15.943-5.932-24.915-6.674-2.15 1.335-3.782 2.966-4.894 4.894-1.112 1.854-1.668 3.893-1.668 6.118 0 2.372.593 4.745 1.78 7.118l4.56.222c-.297 1.706-.742 3.597-1.335 5.673-.593 2.002-.964 3.337-1.112 4.004-1.261 4.672-2.077 7.934-2.447 9.788-.964 4.82-2.188 10.233-3.67 16.24-1.484 5.783-2.225 9.305-2.225 10.566 0 1.409 1.075 3.337 3.225 5.783 2.15 2.373 4.635 4.487 7.452 6.34 2.892 1.854 5.265 2.781 7.119 2.781 5.561 0 11.716-2.262 18.463-6.785 6.822-4.523 12.606-10.047 17.352-16.573 4.745-6.525 7.118-12.494 7.118-17.907 0-6.155-2.224-12.012-6.673-17.574C98 41.082 91.957 36.41 84.32 32.703Zm78.987 53.61c-.445-4.819-.704-7.822-.779-9.008l-.889-8.676a385.951 385.951 0 0 0-2.114-19.131c-.889-6.6-1.594-10.937-2.113-13.014-.297-1.186-1.557-2.52-3.782-4.004-2.15-1.483-4.597-2.743-7.341-3.781-2.669-1.039-4.708-1.558-6.117-1.558-1.78 0-5.673 6.155-11.679 18.464-5.932 12.309-12.976 27.547-21.133 45.714l-2.224 5.005c.667 2.966 2.002 5.191 4.004 6.674 2.076 1.409 4.597 2.113 7.563 2.113 1.706 0 3.559-.222 5.561-.667a760.118 760.118 0 0 0 6.897-19.242c2.521-.223 7.785-.816 15.794-1.78 0 8.23.148 12.902.445 14.014.296 1.113 1.371 2.262 3.225 3.449 1.928 1.186 4.078 2.187 6.451 3.003 2.447.741 4.486 1.112 6.118 1.112.667 0 1.149-.037 1.446-.111.964-.297 1.446-2.521 1.446-6.674 0-3.188-.26-7.156-.779-11.901Zm-56.158 45.851c-.741.964-3.596 4.635-8.564 11.012a508.242 508.242 0 0 1-15.683 19.131l-1.224 10.121c-.593 5.71-1.186 9.751-1.78 12.124-.518 2.299-1.37 3.448-2.557 3.448-1.706 0-3.745-.593-6.118-1.78-2.299-1.26-4.338-2.743-6.117-4.449-1.706-1.705-2.558-3.114-2.558-4.226-.075-1.335.148-3.226.667-5.673a1853.04 1853.04 0 0 1 3.003-12.457l.779-3.003c-.52-1.187-2.484-5.265-5.895-12.235-2.818-5.562-4.931-9.974-6.34-13.236-1.41-3.337-2.114-5.895-2.114-7.675 0-1.261.816-2.744 2.447-4.449 1.706-1.705 3.708-3.151 6.007-4.338 2.372-1.26 4.486-1.891 6.34-1.891 1.408 0 2.52 1.261 3.336 3.782.816 2.447 1.854 6.748 3.115 12.902 1.186 6.451 2.373 11.864 3.559 16.239 7.044-12.012 12.976-23.394 17.796-34.146 2.447-.668 4.635-1.001 6.563-1.001 3.855 0 6.821 1.149 8.898 3.448 2.15 2.298 3.299 5.413 3.448 9.343l-7.008 9.009Zm56.53-16.461c-1.26-1.854-2.521-3.041-3.781-3.56-1.557-.741-9.899-1.112-25.026-1.112-6.6 0-11.16.037-13.681.111a11.7 11.7 0 0 0-3.114 4.005 12.019 12.019 0 0 0-1.002 4.782c0 2.002.445 3.893 1.335 5.673.89 1.779 2.114 3.077 3.671 3.893l15.46-1.446 12.791-1.112c-2.818 3.114-8.898 9.343-18.241 18.686-7.341 7.341-12.902 13.013-16.684 17.017-3.782 3.93-5.858 6.488-6.229 7.675-.148.445-.222.89-.222 1.335 0 2.076.779 4.782 2.336 8.119 1.557 3.263 3.151 5.599 4.782 7.007.964.742 5.562 1.113 13.793 1.113 7.044 0 17.24-.334 30.587-1.001 2.15-2.225 3.225-5.117 3.225-8.676 0-2.225-.482-4.264-1.446-6.118-.963-1.927-2.298-3.262-4.004-4.004-10.603 1.558-20.391 3.189-29.363 4.894 8.082-7.711 16.313-16.35 24.692-25.915 8.453-9.566 13.236-15.869 14.348-18.909.074-.222.111-.593.111-1.112 0-1.335-.408-3.078-1.223-5.228a27.905 27.905 0 0 0-3.115-6.117Z" fill="#fff"/></svg>