<svg viewBox="0 0 132 57" fill="none" xmlns="http://www.w3.org/2000/svg">
<g id="YADZ">
<path id="Background" d="M0.0117188 24.8457C0.0117188 16.3683 0.0117188 12.1297 1.66152 8.89174C3.11273 6.04359 5.42835 3.72796 8.27651 2.27676C11.5144 0.626953 15.7531 0.626953 24.2305 0.626953H107.017C115.494 0.626953 119.733 0.626953 122.971 2.27676C125.819 3.72796 128.135 6.04359 129.586 8.89174C131.236 12.1297 131.236 16.3683 131.236 24.8457V32.4082C131.236 40.8856 131.236 45.1242 129.586 48.3622C128.135 51.2103 125.819 53.5259 122.971 54.9772C119.733 56.627 115.494 56.627 107.017 56.627H24.2305C15.7531 56.627 11.5144 56.627 8.27651 54.9772C5.42835 53.5259 3.11273 51.2103 1.66152 48.3622C0.0117188 45.1242 0.0117188 40.8856 0.0117188 32.4082V24.8457Z" fill="white"/>
<path id="Z" d="M117.645 11.3163C118.242 11.5621 118.839 12.124 119.436 13.002C120.033 13.8799 120.525 14.8456 120.911 15.8991C121.297 16.9175 121.491 17.7428 121.491 18.3749C121.491 18.6207 121.473 18.7963 121.438 18.9017C120.911 20.3415 118.646 23.3265 114.643 27.8566C110.674 32.3868 106.776 36.478 102.949 40.1302C107.198 39.3225 111.833 38.5499 116.855 37.8124C117.663 38.1636 118.295 38.7957 118.751 39.7088C119.208 40.5867 119.436 41.5525 119.436 42.606C119.436 44.2916 118.927 45.6612 117.909 46.7147C111.587 47.0308 106.759 47.1888 103.423 47.1888C99.5246 47.1888 97.3473 47.0132 96.8908 46.662C96.1182 45.9948 95.3632 44.8886 94.6257 43.3434C93.8883 41.7632 93.5195 40.4814 93.5195 39.4981C93.5195 39.2874 93.5547 39.0767 93.6249 38.866C93.8005 38.3041 94.7838 37.0925 96.5748 35.2313C98.3657 33.335 101 30.6485 104.476 27.1719C108.901 22.747 111.781 19.7972 113.115 18.3222L107.057 18.849L99.7353 19.5338C98.9979 19.1475 98.4184 18.533 97.997 17.6901C97.5756 16.8473 97.3649 15.9518 97.3649 15.0036C97.3649 14.2311 97.5229 13.476 97.839 12.7386C98.1902 12.0011 98.6818 11.369 99.3139 10.8422C100.508 10.8071 102.668 10.7896 105.793 10.7896C112.957 10.7896 116.908 10.9651 117.645 11.3163Z" fill="#0B100A"/>
<path id="D" d="M70.5509 9.8208C74.8001 10.172 78.7333 11.2255 82.3504 12.9814C85.9675 14.7372 88.8295 16.9496 90.9366 19.6186C93.0436 22.2524 94.0971 25.0267 94.0971 27.9414C94.0971 30.505 92.9734 33.3319 90.7259 36.4223C88.4784 39.5126 85.7392 42.1289 82.5084 44.271C79.3127 46.4132 76.3979 47.4843 73.7641 47.4843C72.8862 47.4843 71.7624 47.0453 70.3929 46.1674C69.0584 45.2894 67.882 44.2886 66.8635 43.1648C65.8451 42.006 65.3359 41.0929 65.3359 40.4257C65.3359 39.8287 65.6871 38.1606 66.3895 35.4214C67.0918 32.5769 67.6712 30.0133 68.1278 27.7307C68.3034 26.8528 68.6897 25.3076 69.2867 23.0952C69.3569 22.7791 69.5325 22.147 69.8134 21.1989C70.0944 20.2156 70.3051 19.3201 70.4455 18.5124L68.2858 18.407C67.7239 17.2833 67.443 16.1595 67.443 15.0357C67.443 13.9822 67.7064 13.0165 68.2331 12.1386C68.7599 11.2255 69.5325 10.4529 70.5509 9.8208ZM73.7641 40.5837C77.2759 38.7576 80.1906 36.5276 82.5084 33.8938C84.8613 31.26 86.0377 28.7842 86.0377 26.4665C86.0377 25.0969 85.2124 23.78 83.5619 22.5158C81.9465 21.2515 80.0853 20.4087 77.9782 19.9873C77.5568 22.1295 76.9247 25.2023 76.0819 29.2056C75.0284 34.1923 74.2558 37.985 73.7641 40.5837Z" fill="#0B100A"/>
<path id="A" d="M60.2239 34.1085C60.259 34.6704 60.3819 36.0927 60.5926 38.3753C60.8384 40.6228 60.9614 42.5016 60.9614 44.0117C60.9614 45.9782 60.7331 47.0318 60.2766 47.1722C60.1361 47.2073 59.9078 47.2249 59.5918 47.2249C58.8192 47.2249 57.8535 47.0493 56.6946 46.6981C55.5708 46.3119 54.5524 45.8378 53.6394 45.2759C52.7614 44.714 52.2522 44.1697 52.1118 43.6429C51.9713 43.1162 51.901 40.9038 51.901 37.0057C48.1084 37.4622 45.615 37.7432 44.421 37.8485C43.4729 40.6228 42.3842 43.6605 41.1551 46.9615C40.2069 47.1722 39.329 47.2776 38.5213 47.2776C37.1166 47.2776 35.9226 46.944 34.9393 46.2767C33.9911 45.5744 33.359 44.5209 33.043 43.1162L34.0965 40.7457C37.9594 32.142 41.2956 24.9253 44.105 19.0958C46.9495 13.2663 48.7932 10.3516 49.636 10.3516C50.3032 10.3516 51.2689 10.5974 52.5332 11.089C53.8325 11.5807 54.9914 12.1777 56.0098 12.88C57.0633 13.5824 57.6603 14.2145 57.8008 14.7764C58.0466 15.7597 58.3802 17.814 58.8016 20.9395C59.223 24.0649 59.5567 27.085 59.8025 29.9998L60.2239 34.1085ZM51.743 18.5691C50.1979 22.2213 48.6702 26.1369 47.1602 30.3158C48.7756 30.2105 50.3734 30.0525 51.9537 29.8418C51.9537 24.9955 51.8835 21.238 51.743 18.5691Z" fill="#0B100A"/>
<path id="Y" d="M36.2723 20.7777C35.9211 21.2342 34.5691 22.9725 32.2162 25.9926C29.8633 29.0127 27.3876 32.0328 24.7889 35.0529L24.2094 39.8464C23.9285 42.5505 23.6475 44.4644 23.3666 45.5882C23.1208 46.6768 22.7169 47.2211 22.1551 47.2211C21.3474 47.2211 20.3816 46.9402 19.2579 46.3783C18.1692 45.7813 17.2035 45.0789 16.3607 44.2712C15.553 43.4635 15.1491 42.7963 15.1491 42.2696C15.114 41.6374 15.2194 40.7419 15.4652 39.5831C15.7461 38.3891 16.2202 36.4225 16.8874 33.6833L17.2562 32.2611C17.0103 31.6992 16.0797 29.7677 14.4643 26.4667C13.1299 23.8329 12.129 21.7434 11.4618 20.1982C10.7946 18.6179 10.4609 17.4064 10.4609 16.5636C10.4609 15.9666 10.8472 15.2642 11.6198 14.4565C12.4275 13.6488 13.3757 12.964 14.4643 12.4021C15.5881 11.8051 16.5889 11.5066 17.4669 11.5066C18.1341 11.5066 18.6609 12.1036 19.0472 13.2976C19.4335 14.4565 19.9251 16.4933 20.5221 19.4081C21.084 22.4633 21.6459 25.0269 22.2077 27.0988C25.5439 21.4098 28.3533 16.0192 30.6359 10.9272C31.7948 10.6112 32.8308 10.4531 33.7438 10.4531C35.5699 10.4531 36.9746 10.9974 37.9579 12.0861C38.9763 13.1747 39.5206 14.6497 39.5909 16.5109L36.2723 20.7777Z" fill="#0B100A"/>
</g>
</svg>
