<svg xmlns="http://www.w3.org/2000/svg" viewBox="0 0 75 32" fill="none"><path fill="currentColor" d="M47.141 19.01c-1.325 1.505-2.99 2.778-4.997 3.822.104-.55.23-1.193.378-1.93.252-1.254.568-2.778.947-4.572a441.5 441.5 0 0 0 1.084-5.267 7.478 7.478 0 0 1 3.19 1.445c.943.722 1.415 1.475 1.415 2.257 0 1.325-.672 2.74-2.017 4.244Z"/><path fill="currentColor" d="M29.56 10.253a135.031 135.031 0 0 0-2.618 6.712c.923-.06 1.836-.15 2.74-.27 0-2.77-.04-4.917-.121-6.442Z"/><path fill="currentColor" fill-rule="evenodd" d="M0 13.84c0-4.845 0-7.267.943-9.117a8.653 8.653 0 0 1 3.78-3.78C6.573 0 8.995 0 13.839 0h47.307c4.844 0 7.266 0 9.116.943a8.65 8.65 0 0 1 3.78 3.78c.944 1.85.944 4.272.944 9.116v4.322c0 4.844 0 7.266-.944 9.116a8.674 8.674 0 0 1-1.392 1.986 8.645 8.645 0 0 1-2.388 1.794C68.412 32 65.99 32 61.146 32H13.839c-4.844 0-7.266 0-9.116-.942a8.653 8.653 0 0 1-3.78-3.78C0 25.426 0 23.004 0 18.16v-4.322Zm67.22-7.732c.34.14.681.462 1.022.963.342.502.623 1.054.843 1.656.057.15.106.29.148.425.051.164.092.317.122.46l.017.089.013.07c.02.134.032.257.032.37 0 .082-.004.15-.01.203a.54.54 0 0 1-.02.1c-.302.822-1.596 2.527-3.884 5.116-2.267 2.589-4.495 4.927-6.682 7.014 2.428-.462 5.077-.903 7.947-1.325.461.2.822.562 1.083 1.084a3.53 3.53 0 0 1 .391 1.655c0 .963-.29 1.746-.872 2.348-3.613.18-6.372.271-8.278.271-2.228 0-3.471-.1-3.733-.301-.441-.381-.872-1.014-1.294-1.896a9.549 9.549 0 0 1-.358-.869c-.182-.516-.274-.96-.274-1.328 0-.12.02-.242.06-.362.1-.32.663-1.013 1.686-2.077 1.024-1.084 2.529-2.618 4.515-4.606 2.529-2.528 4.174-4.213 4.937-5.056l-3.462.3-4.184.392c-.421-.22-.753-.572-.993-1.053a3.384 3.384 0 0 1-.321-2.04c.042-.267.119-.53.23-.79a3.208 3.208 0 0 1 .843-1.083c.682-.02 1.917-.03 3.702-.03 1.507 0 2.764.013 3.773.04 1.734.047 2.734.134 3 .26Zm-20.17.951c-2.066-1.003-4.314-1.605-6.742-1.806-.582.361-1.023.803-1.324 1.325a3.136 3.136 0 0 0-.452 1.655 3.876 3.876 0 0 0 .152 1.08 4.642 4.642 0 0 0 .33.847l1.234.06c-.039.222-.087.456-.144.701-.062.265-.134.543-.217.834-.161.542-.26.903-.301 1.084-.154.569-.283 1.061-.388 1.476-.128.506-.22.897-.275 1.173a102.363 102.363 0 0 1-.993 4.394 71.57 71.57 0 0 0-.23.922 38.05 38.05 0 0 0-.153.65c-.146.653-.219 1.082-.219 1.288 0 .175.061.38.184.615.145.276.374.592.689.95a10.48 10.48 0 0 0 2.017 1.716c.783.502 1.425.752 1.926.752 1.505 0 3.17-.611 4.997-1.836a18.172 18.172 0 0 0 4.696-4.485c1.284-1.766 1.926-3.38 1.926-4.846 0-1.665-.602-3.25-1.806-4.756-1.204-1.525-2.84-2.79-4.906-3.793ZM34.408 19.132c.02.321.09 1.134.21 2.438.068.614.119 1.18.154 1.697.038.566.057 1.074.057 1.524 0 .417-.018.763-.053 1.036-.061.463-.174.72-.338.77-.08.02-.21.03-.391.03a3.78 3.78 0 0 1-.476-.033 5.39 5.39 0 0 1-.307-.049 8.551 8.551 0 0 1-.873-.219 8.732 8.732 0 0 1-1.745-.813c-.502-.32-.793-.631-.874-.933-.08-.3-.12-1.565-.12-3.792-.825.1-1.543.184-2.153.254-.773.09-1.372.155-1.8.197l-.321.03a207.425 207.425 0 0 1-1.866 5.208c-.284.063-.557.11-.82.14-.237.027-.466.04-.685.04-.803 0-1.485-.19-2.047-.572-.542-.4-.903-1.003-1.084-1.805l.602-1.355c2.207-4.917 4.114-9.04 5.719-12.371 1.625-3.331 2.679-4.997 3.16-4.997.382 0 .934.14 1.656.421A9.273 9.273 0 0 1 32 7.002c.602.4.943.763 1.023 1.083.14.562.331 1.736.572 3.522.24 1.786.432 3.512.572 5.178l.24 2.347Zm-14.55-6.506c.464-.596.752-.966.863-1.111l1.897-2.439c-.04-1.063-.351-1.906-.933-2.528-.562-.622-1.365-.933-2.408-.933-.522 0-1.114.09-1.777.27-1.304 2.91-2.91 5.991-4.815 9.242-.322-1.184-.643-2.65-.964-4.395-.341-1.666-.622-2.83-.843-3.491-.22-.683-.522-1.024-.903-1.024-.501 0-1.073.17-1.716.512a6.483 6.483 0 0 0-1.625 1.173c-.441.462-.662.864-.662 1.205 0 .481.19 1.174.572 2.077.381.882.953 2.077 1.715 3.582.924 1.886 1.456 2.99 1.596 3.31l-.21.814a528.203 528.203 0 0 0-.814 3.37c-.14.663-.2 1.175-.18 1.536 0 .3.23.682.692 1.144a7.782 7.782 0 0 0 1.656 1.203c.642.322 1.194.482 1.655.482.321 0 .552-.31.692-.933.161-.642.322-1.736.482-3.28l.332-2.74c1.484-1.726 2.899-3.452 4.243-5.178l1.456-1.868Z" clip-rule="evenodd"/></svg>