<svg width="500" height="214" fill="none" xmlns="http://www.w3.org/2000/svg"><path d="M280.93 152.693c13.381-6.979 24.487-15.5 33.319-25.565 8.965-10.065 13.447-19.526 13.447-28.383 0-5.234-3.144-10.267-9.433-15.098-6.155-4.83-13.247-8.052-21.276-9.662-1.605 8.186-4.014 19.928-7.225 35.227-4.014 19.056-6.958 33.55-8.832 43.481ZM179.639 113.439c5.753-15.97 11.574-30.932 17.462-44.89.535 10.2.802 24.56.802 43.079a271.125 271.125 0 0 1-18.264 1.811Z" fill="#fff"/><path fill-rule="evenodd" clip-rule="evenodd" d="M6.286 31.583C0 43.957 0 60.155 0 92.55v28.9c0 32.395 0 48.593 6.286 60.967a57.755 57.755 0 0 0 25.205 25.278C43.83 214 59.98 214 92.281 214H407.72c32.301 0 48.451 0 60.789-6.305a57.759 57.759 0 0 0 25.205-25.278C500 170.043 500 153.845 500 121.45v-28.9c0-32.395 0-48.593-6.286-60.967a57.764 57.764 0 0 0-25.205-25.278C456.171 0 440.021 0 407.72 0H92.28C59.98 0 43.83 0 31.491 6.305A57.76 57.76 0 0 0 6.286 31.583Zm262.401 3.551c16.191 1.342 31.177 5.368 44.959 12.078 13.783 6.71 24.688 15.165 32.716 25.364 8.029 10.065 12.043 20.666 12.043 31.805 0 9.796-4.282 20.599-12.845 32.409-8.564 11.81-19.001 21.807-31.311 29.993-12.177 8.187-23.283 12.28-33.319 12.28-3.345 0-7.627-1.678-12.845-5.033-5.085-3.355-9.567-7.179-13.448-11.474-3.88-4.428-5.82-7.918-5.82-10.467 0-2.282 1.338-8.656 4.014-19.124 2.676-10.87 4.884-20.666 6.623-29.389.669-3.355 2.141-9.26 4.416-17.714.268-1.208.937-3.624 2.007-7.247 1.071-3.758 1.873-7.18 2.409-10.266l-8.229-.403c-2.141-4.294-3.212-8.589-3.212-12.883 0-4.026 1.004-7.717 3.011-11.072 2.007-3.489 4.951-6.441 8.831-8.857ZM230.82 144.238c-.803-8.723-1.271-14.158-1.405-16.305l-1.606-15.701c-.936-11.139-2.207-22.68-3.813-34.624-1.606-11.943-2.877-19.794-3.814-23.552-.535-2.147-2.81-4.562-6.824-7.246-3.88-2.684-8.296-4.966-13.247-6.845-4.817-1.878-8.496-2.818-11.039-2.818-3.211 0-10.236 11.139-21.074 33.416-10.705 22.277-23.417 49.855-38.136 82.733l-4.014 9.059c1.204 5.368 3.613 9.394 7.226 12.078 3.746 2.55 8.296 3.824 13.648 3.824 3.078 0 6.423-.402 10.036-1.207 4.683-12.615 8.831-24.223 12.444-34.825 4.549-.403 14.05-1.476 28.501-3.221 0 14.896.267 23.351.803 25.364.535 2.013 2.475 4.093 5.82 6.24 3.479 2.147 7.36 3.959 11.641 5.435 4.416 1.342 8.096 2.013 11.04 2.013 1.204 0 2.074-.067 2.609-.201 1.739-.537 2.609-4.563 2.609-12.078 0-5.771-.468-12.95-1.405-21.539ZM122.703 96.933c8.965-11.541 14.116-18.184 15.454-19.929L150.802 60.7c-.267-7.112-2.341-12.749-6.222-16.909-3.746-4.16-9.099-6.24-16.057-6.24-3.479 0-7.426.604-11.842 1.812-8.697 19.458-19.402 40.058-32.114 61.798-2.14-7.917-4.281-17.714-6.422-29.39-2.275-11.138-4.148-18.921-5.62-23.35-1.472-4.563-3.48-6.844-6.022-6.844-3.345 0-7.158 1.14-11.44 3.422-4.148 2.147-7.76 4.764-10.838 7.85-2.944 3.087-4.416 5.771-4.416 8.053 0 3.22 1.271 7.85 3.813 13.89 2.543 5.904 6.356 13.889 11.441 23.954 6.155 12.614 9.701 19.995 10.638 22.142l-1.405 5.435c-2.543 10.468-4.35 17.983-5.42 22.546-.936 4.428-1.338 7.851-1.204 10.266 0 2.013 1.539 4.563 4.617 7.649 3.21 3.087 6.89 5.771 11.039 8.052 4.281 2.148 7.961 3.221 11.039 3.221 2.14 0 3.68-2.08 4.616-6.24 1.07-4.294 2.141-11.608 3.212-21.942l2.207-18.318a919.145 919.145 0 0 0 28.301-34.623Zm332.335-49.72c-2.275-3.356-4.549-5.503-6.824-6.442-2.81-1.342-17.863-2.013-45.16-2.013-11.909 0-20.138.067-24.688.201a21.188 21.188 0 0 0-5.62 7.247c-1.204 2.818-1.806 5.703-1.806 8.656a22.7 22.7 0 0 0 2.409 10.266c1.605 3.22 3.813 5.569 6.623 7.045l27.899-2.617 23.082-2.013c-5.085 5.637-16.057 16.91-32.917 33.818-13.247 13.286-23.282 23.552-30.107 30.799-6.824 7.113-10.57 11.743-11.239 13.89a7.606 7.606 0 0 0-.402 2.415c0 3.758 1.405 8.656 4.215 14.695 2.81 5.905 5.687 10.132 8.631 12.682 1.739 1.342 10.035 2.013 24.888 2.013 12.712 0 31.11-.604 55.195-1.812 3.881-4.026 5.821-9.26 5.821-15.701 0-4.026-.87-7.717-2.609-11.072-1.74-3.489-4.148-5.904-7.226-7.246-19.134 2.818-36.797 5.77-52.988 8.857 14.585-13.957 29.438-29.591 44.558-46.903 15.254-17.311 23.885-28.718 25.892-34.22.134-.403.201-1.074.201-2.013 0-2.416-.736-5.57-2.208-9.461-1.472-4.026-3.345-7.717-5.62-11.072Z" fill="#fff"/></svg>