<svg width="215" height="215" viewBox="0 0 215 215" fill="none" xmlns="http://www.w3.org/2000/svg">
<path d="M130.878 68.8119C134.023 60.0597 137.205 51.8591 140.423 44.2102C140.716 49.7998 140.862 57.6694 140.862 67.819C137.571 68.2603 134.243 68.5912 130.878 68.8119Z" fill="white"/>
<path d="M67.0535 173.548C74.3675 169.723 80.4381 165.053 85.2653 159.537C90.1656 154.021 92.6158 148.836 92.6158 143.982C92.6158 141.113 90.897 138.355 87.4595 135.708C84.0951 133.06 80.2187 131.295 75.8303 130.412C74.9526 134.899 73.6361 141.334 71.8807 149.718C69.6865 160.162 68.0775 168.105 67.0535 173.548Z" fill="white"/>
<path fill-rule="evenodd" clip-rule="evenodd" d="M6.97558 34.9446C0 48.635 0 66.5566 0 102.4V112.6C0 148.443 0 166.365 6.97558 180.055C13.1115 192.098 22.9022 201.889 34.9446 208.024C48.635 215 66.5566 215 102.4 215H112.6C148.443 215 166.365 215 180.055 208.024C192.098 201.889 201.889 192.098 208.024 180.055C215 166.365 215 148.443 215 112.6V102.4C215 66.5566 215 48.635 208.024 34.9446C201.889 22.9022 192.098 13.1115 180.055 6.97558C166.365 0 148.443 0 112.6 0H102.4C66.5566 0 48.635 0 34.9446 6.97558C22.9022 13.1115 13.1115 22.9022 6.97558 34.9446ZM158.854 85.6911C158.415 80.9105 158.159 77.9318 158.086 76.755L157.209 68.1499C156.697 62.0455 156.002 55.7204 155.124 49.1746C154.246 42.6289 153.552 38.3263 153.04 36.267C152.747 35.0902 151.504 33.7664 149.309 32.2954C147.188 30.8245 144.775 29.5742 142.069 28.5445C139.436 27.5148 137.424 27 136.035 27C134.279 27 130.439 33.1045 124.515 45.3134C118.664 57.5223 111.716 72.6363 103.67 90.6555L101.476 95.62C102.134 98.5619 103.451 100.768 105.426 102.239C107.474 103.637 109.96 104.335 112.886 104.335C114.568 104.335 116.397 104.115 118.371 103.673C120.931 96.76 123.199 90.3981 125.173 84.5879C127.66 84.3672 132.853 83.7788 140.752 82.8227C140.752 90.9865 140.898 95.62 141.191 96.7232C141.484 97.8264 142.544 98.9664 144.373 100.143C146.274 101.32 148.395 102.313 150.736 103.122C153.149 103.857 155.161 104.225 156.77 104.225C157.428 104.225 157.903 104.188 158.196 104.115C159.147 103.821 159.622 101.614 159.622 97.4955C159.622 94.3329 159.366 90.3981 158.854 85.6911ZM99.7568 59.7655C104.657 53.4404 107.473 49.7998 108.204 48.8437L115.116 39.9076C114.97 36.0096 113.836 32.9206 111.715 30.6406C109.667 28.3606 106.742 27.2206 102.938 27.2206C101.037 27.2206 98.8791 27.5516 96.4655 28.2135C91.7114 38.878 85.8603 50.1675 78.912 62.0823C77.7418 57.7429 76.5715 52.374 75.4013 45.9753C74.1579 39.8709 73.134 35.6051 72.3294 33.178C71.5249 30.6774 70.4278 29.4271 69.0381 29.4271C67.2097 29.4271 65.1252 30.0522 62.7847 31.3025C60.5174 32.4793 58.5426 33.9135 56.8604 35.6051C55.2513 37.2967 54.4468 38.7676 54.4468 40.0179C54.4468 41.7831 55.1416 44.3205 56.5313 47.6301C57.9209 50.8662 60.0054 55.2423 62.7847 60.7584C66.1491 67.6719 68.0873 71.717 68.5993 72.8938L67.8313 75.8725C66.4417 81.6092 65.4543 85.7278 64.8692 88.2285C64.3572 90.6555 64.1378 92.531 64.2109 93.8549C64.2109 94.9581 65.052 96.3555 66.7342 98.0471C68.4896 99.7387 70.5009 101.21 72.7683 102.46C75.1087 103.637 77.1201 104.225 78.8023 104.225C79.9725 104.225 80.8136 103.085 81.3256 100.805C81.9107 98.4516 82.4958 94.4432 83.081 88.7801L84.2878 78.7408C89.7001 72.4157 94.8564 66.0906 99.7568 59.7655ZM60.3612 109.12C69.2111 109.856 77.4028 112.062 84.9362 115.739C92.4695 119.417 98.4304 124.05 102.819 129.64C107.207 135.156 109.401 140.966 109.401 147.071C109.401 152.44 107.061 158.36 102.38 164.832C97.699 171.305 91.9941 176.784 85.2653 181.27C78.6096 185.757 72.539 188 67.0535 188C65.225 188 62.8846 187.081 60.0321 185.242C57.2528 183.403 54.8026 181.307 52.6816 178.954C50.5605 176.527 49.5 174.614 49.5 173.217C49.5 171.967 50.2314 168.473 51.6942 162.736C53.157 156.779 54.3638 151.41 55.3146 146.629C55.6803 144.791 56.4848 141.555 57.7282 136.921C57.8745 136.259 58.2402 134.935 58.8253 132.95C59.4104 130.89 59.8493 129.015 60.1418 127.323L55.6437 127.102C54.4735 124.749 53.8884 122.395 53.8884 120.042C53.8884 117.835 54.4369 115.813 55.534 113.974C56.6311 112.062 58.2402 110.444 60.3612 109.12ZM162.221 115.739C160.978 113.901 159.735 112.724 158.491 112.209C156.955 111.474 148.727 111.106 133.807 111.106C127.297 111.106 122.799 111.143 120.312 111.216C118.996 112.319 117.972 113.643 117.24 115.188C116.582 116.732 116.253 118.314 116.253 119.932C116.253 121.917 116.692 123.793 117.57 125.558C118.447 127.323 119.654 128.61 121.19 129.419L136.44 127.985L149.056 126.882C146.277 129.971 140.279 136.149 131.064 145.416C123.823 152.697 118.338 158.323 114.607 162.295C110.877 166.193 108.829 168.73 108.464 169.907C108.317 170.349 108.244 170.79 108.244 171.231C108.244 173.29 109.012 175.975 110.548 179.285C112.084 182.521 113.657 184.837 115.266 186.235C116.216 186.97 120.751 187.338 128.87 187.338C135.818 187.338 145.875 187.007 159.04 186.345C161.161 184.139 162.221 181.27 162.221 177.74C162.221 175.534 161.746 173.511 160.795 171.672C159.844 169.76 158.528 168.436 156.846 167.701C146.387 169.245 136.732 170.863 127.882 172.555C135.854 164.906 143.973 156.338 152.238 146.85C160.576 137.362 165.293 131.111 166.39 128.095C166.463 127.875 166.5 127.507 166.5 126.992C166.5 125.668 166.098 123.94 165.293 121.807C164.489 119.601 163.465 117.578 162.221 115.739Z" fill="white"/>
</svg>
